<?xml version="1.0" standalone="no"?>
<!DOCTYPE svg PUBLIC "-//W3C//DTD SVG 20010904//EN"
 "http://www.w3.org/TR/2001/REC-SVG-20010904/DTD/svg10.dtd">
<svg version="1.0" xmlns="http://www.w3.org/2000/svg"
 width="784.000000pt" height="784.000000pt" viewBox="0 0 784.000000 784.000000"
 preserveAspectRatio="xMidYMid meet">
<metadata>
Created by potrace 1.14, written by Peter Selinger 2001-2017
</metadata>
<g transform="translate(0.000000,784.000000) scale(0.100000,-0.100000)"
fill="#000000" stroke="none">
<path d="M2031 4366 c-11 -5 -25 -23 -31 -40 -9 -29 -60 -252 -60 -265 0 -3
30 -6 67 -5 l68 0 18 85 c9 46 22 108 27 137 5 30 12 62 15 73 4 12 1 19 -7
20 -65 4 -80 3 -97 -5z"/>
<path d="M3459 4372 c-51 -3 -77 -23 -84 -63 -3 -13 -7 -35 -10 -49 -3 -14 -8
-46 -11 -72 -8 -65 5 -70 180 -72 87 -1 140 -5 140 -11 -3 -17 -35 -218 -40
-245 -2 -14 -7 -41 -10 -60 -6 -39 -9 -59 -18 -110 -3 -19 -8 -46 -10 -60 -4
-23 -7 -42 -21 -125 -24 -136 -23 -137 102 -137 146 0 151 1 173 24 11 12 18
23 16 25 -2 2 -32 7 -67 10 -60 5 -93 17 -85 32 2 3 6 29 10 56 3 28 8 61 11
75 6 28 13 70 21 115 3 17 7 37 9 45 2 8 6 31 9 50 3 19 8 45 10 56 2 12 7 37
10 55 8 50 16 91 21 119 11 51 15 75 20 112 l6 38 -153 0 c-84 0 -159 4 -165
8 -19 12 -19 54 1 159 5 25 -4 29 -65 25z"/>
<path d="M4416 4365 c-19 -10 -39 -52 -50 -108 -3 -12 -8 -36 -11 -53 l-7 -31
-99 4 c-54 2 -99 0 -100 -4 0 -4 -2 -16 -4 -25 -5 -25 8 -30 79 -30 73 -1 102
7 110 28 5 12 9 11 26 -6 11 -11 30 -20 43 -21 12 0 76 -1 142 -1 66 -1 123
-6 126 -11 4 -5 3 -25 -2 -46 -4 -20 -10 -53 -13 -73 -10 -62 -17 -109 -22
-132 -2 -11 -6 -32 -8 -46 -3 -14 -8 -43 -11 -65 -3 -22 -7 -47 -10 -55 -2 -8
-7 -37 -10 -65 -4 -27 -9 -59 -11 -70 -12 -74 -15 -94 -18 -127 -3 -23 1 -41
10 -49 11 -9 103 -14 220 -10 29 1 81 37 70 49 -3 3 -34 7 -68 9 -35 2 -67 8
-71 12 -14 14 -12 48 8 141 3 14 7 39 10 55 2 17 7 42 10 58 3 15 7 38 9 52 3
14 7 33 10 43 3 9 7 35 10 57 3 22 8 52 11 68 13 70 16 84 20 112 3 17 7 41
10 55 2 13 7 41 10 62 l6 38 -154 0 c-199 0 -193 -6 -163 156 6 32 6 32 -41
36 -25 2 -55 -1 -67 -7z"/>
<path d="M5605 4372 c-74 -7 -87 -20 -100 -102 -5 -34 -9 -55 -21 -110 -2 -14
-7 -41 -10 -60 -2 -19 -6 -42 -9 -50 -2 -8 -7 -32 -11 -54 -3 -21 -8 -48 -10
-60 -2 -11 -6 -34 -9 -51 -3 -16 -8 -41 -10 -55 -13 -61 -29 -153 -40 -217 -7
-48 -14 -85 -20 -113 -16 -76 -15 -100 4 -116 17 -15 64 -17 457 -16 458 2
453 1 454 45 0 16 -24 17 -372 17 -205 0 -379 4 -386 9 -19 11 -18 48 3 151 3
14 8 41 11 60 4 19 7 40 8 45 2 6 7 33 11 60 5 28 9 52 10 55 1 3 4 19 8 35 3
17 9 46 11 65 6 36 10 62 21 115 3 17 10 55 15 85 5 30 11 65 14 76 5 26 17
91 21 121 2 11 6 30 9 41 7 22 -10 29 -59 24z"/>
<path d="M6666 4370 c-29 -4 -54 -13 -61 -23 -11 -16 -38 -136 -51 -227 -2
-19 -7 -42 -9 -50 -3 -8 -7 -33 -11 -55 -3 -22 -12 -74 -20 -115 -8 -41 -17
-91 -20 -110 -2 -19 -7 -43 -10 -53 -3 -10 -7 -32 -10 -50 -2 -18 -7 -45 -10
-62 -4 -16 -8 -37 -9 -45 -1 -8 -8 -48 -15 -89 -13 -72 -13 -74 8 -91 18 -15
41 -18 127 -17 96 1 107 3 127 24 27 29 21 35 -39 35 -27 -1 -55 3 -62 7 -20
12 -17 62 13 221 15 80 30 156 32 170 2 14 7 36 10 50 3 14 8 41 10 60 3 19 7
46 10 60 5 29 51 281 59 326 6 38 -2 42 -69 34z"/>
<path d="M415 4346 c-58 -27 -134 -99 -158 -149 -17 -36 -42 -126 -51 -187 -3
-19 -8 -46 -11 -60 -3 -14 -8 -38 -11 -55 -3 -16 -10 -50 -15 -75 -6 -25 -13
-63 -16 -85 -3 -22 -9 -49 -13 -60 -4 -11 -7 -54 -6 -95 1 -60 6 -83 24 -113
22 -35 90 -88 120 -95 8 -1 159 -3 336 -3 256 -1 327 1 344 12 36 22 27 39
-20 39 -402 5 -548 16 -548 41 0 5 -5 9 -11 9 -18 0 -58 51 -75 98 -16 40 -16
120 0 188 2 12 7 37 10 55 3 19 8 44 10 55 2 12 7 39 10 60 9 53 35 188 48
249 14 62 51 131 90 168 24 22 26 27 11 27 -10 0 -40 -11 -68 -24z"/>
<path d="M1307 4352 c-9 -10 -19 -35 -23 -56 -3 -21 -8 -48 -10 -60 -2 -11 -7
-37 -10 -56 -4 -19 -8 -44 -11 -55 -2 -11 -6 -33 -8 -50 -3 -16 -7 -41 -10
-55 -3 -14 -8 -41 -11 -60 -4 -19 -8 -44 -11 -55 -2 -11 -6 -36 -9 -55 -3 -19
-9 -53 -14 -75 -5 -22 -11 -56 -15 -75 -3 -19 -7 -46 -10 -60 -3 -14 -7 -38
-10 -55 -3 -16 -7 -41 -11 -55 -13 -60 -16 -148 -4 -155 22 -13 236 -8 259 7
37 23 21 41 -39 46 -89 6 -90 9 -55 182 2 14 7 40 10 58 11 73 16 98 20 112 2
8 6 31 9 50 3 19 8 45 10 56 2 12 7 37 10 55 8 50 15 88 26 144 5 28 12 66 15
85 3 19 7 46 10 60 3 14 7 39 10 55 3 17 7 42 10 58 5 27 5 27 -53 27 -44 0
-63 -5 -75 -18z"/>
<path d="M2774 4351 c-18 -11 -40 -33 -50 -50 -10 -17 -22 -31 -26 -31 -4 0
-8 -6 -8 -13 0 -7 -8 -22 -17 -33 -10 -10 -24 -31 -32 -46 -8 -16 -18 -28 -23
-28 -4 0 -8 -7 -8 -15 0 -8 -4 -15 -10 -15 -5 0 -10 -5 -10 -10 0 -9 -35 -65
-50 -80 -3 -3 -11 -17 -19 -32 -8 -16 -18 -28 -23 -28 -4 0 -8 -4 -8 -9 0 -7
-53 -92 -120 -191 -6 -8 -34 -51 -62 -95 -29 -44 -55 -82 -58 -85 -3 -3 -27
-39 -54 -80 -81 -123 -68 -140 108 -140 103 0 126 3 154 20 52 32 40 40 -62
40 -86 0 -95 2 -101 20 -5 14 4 37 27 73 42 66 95 147 108 167 76 110 240 364
240 371 0 5 5 9 10 9 6 0 10 6 10 13 0 7 9 23 20 35 11 12 20 26 20 32 0 5 5
10 10 10 6 0 10 6 10 13 0 7 8 22 18 33 9 10 23 31 31 47 8 15 18 27 23 27 4
0 8 7 8 15 0 8 4 15 8 15 8 0 32 43 32 55 0 13 -69 2 -96 -14z"/>
<path d="M7009 4187 c0 -1 -2 -12 -3 -24 -2 -20 2 -23 33 -23 139 -2 221 -7
227 -12 12 -12 9 -56 -11 -159 -3 -12 2 -19 13 -20 9 0 33 -2 52 -4 43 -5 77
11 84 39 3 11 8 50 12 86 3 36 7 67 7 70 1 3 -2 15 -6 27 -8 21 -12 21 -207
22 -110 0 -200 -1 -201 -2z"/>
<path d="M711 4169 c-24 -10 -33 -23 -25 -42 5 -13 35 -15 195 -15 172 0 192
2 214 20 50 39 36 43 -170 43 -107 0 -203 -3 -214 -6z"/>
<path d="M5149 4173 c0 -4 -2 -16 -4 -26 -4 -23 14 -30 79 -29 81 1 84 1 100
18 33 33 20 40 -79 43 -52 1 -95 -2 -96 -6z"/>
<path d="M5933 4154 c-12 -32 13 -36 242 -37 185 0 228 2 236 14 24 38 17 39
-231 39 -209 0 -241 -2 -247 -16z"/>
<path d="M2947 3946 c-53 -80 -56 -87 -45 -118 6 -18 14 -37 18 -41 7 -8 159
-12 166 -5 5 5 -71 248 -77 248 -3 0 -31 -38 -62 -84z"/>
<path d="M1664 3811 c-2 -2 -4 -17 -4 -32 l0 -28 113 1 c129 1 123 10 92 -132
-3 -14 -8 -40 -11 -59 -3 -18 -8 -43 -10 -55 -11 -48 -14 -112 -7 -122 10 -15
25 -17 150 -15 91 1 104 3 123 23 11 12 18 23 16 25 -2 2 -30 6 -62 9 -33 4
-65 11 -72 17 -13 11 -12 68 3 137 3 14 8 42 11 62 3 20 11 65 19 100 7 35 11
65 8 68 -5 6 -363 7 -369 1z"/>
<path d="M5883 3803 c-14 -37 2 -41 151 -41 80 0 155 -3 166 -7 15 -5 23 0 32
19 6 15 9 29 5 32 -3 3 -83 7 -178 8 -129 1 -173 -2 -176 -11z"/>
<path d="M6910 3663 c0 -13 6 -24 13 -24 6 -1 28 -3 47 -4 19 -1 40 -3 46 -4
6 0 39 -57 74 -126 45 -88 70 -127 84 -131 12 -2 84 -3 160 -2 118 3 140 6
150 20 16 26 2 32 -85 34 -67 1 -83 5 -100 23 -11 11 -17 21 -13 21 4 0 -1 9
-11 20 -10 11 -15 20 -11 20 3 0 -5 18 -18 39 -14 21 -22 42 -19 45 4 3 1 6
-6 6 -7 0 -10 4 -7 8 3 5 -5 24 -18 43 l-23 34 -132 0 c-130 1 -131 1 -131
-22z"/>
<path d="M2661 3509 l-22 -29 38 -1 c21 0 105 -1 188 -2 l149 -2 13 -44 c7
-25 18 -48 25 -53 15 -9 249 -11 272 -2 9 3 16 17 16 30 0 23 -3 24 -63 24
-52 0 -67 4 -83 21 -10 12 -18 23 -16 25 2 2 1 17 -3 32 l-6 29 -243 0 -244 1
-21 -29z"/>
</g>
</svg>
